<svg xmlns="http://www.w3.org/2000/svg" viewBox="0 0 1100 720" width="1100" height="720" role="img" aria-label="Parallel Install Tracks: Series-C+ + Sub-Series-C">
<defs>
  <marker id="arrowhead" viewBox="0 0 10 10" refX="9" refY="5" markerWidth="7" markerHeight="7" orient="auto-start-reverse">
    <path d="M0,0 L10,5 L0,10 z" fill="#3B6BA5"/>
  </marker>
  <marker id="arrowhead-accent" viewBox="0 0 10 10" refX="9" refY="5" markerWidth="7" markerHeight="7" orient="auto-start-reverse">
    <path d="M0,0 L10,5 L0,10 z" fill="#E07C3E"/>
  </marker>
  <marker id="arrowhead-light" viewBox="0 0 10 10" refX="9" refY="5" markerWidth="6" markerHeight="6" orient="auto-start-reverse">
    <path d="M0,0 L10,5 L0,10 z" fill="#5B8AC0"/>
  </marker>
  <style>
    text { font-family: Inter, 'Helvetica Neue', Helvetica, Arial, sans-serif; fill: #0F1F33; }
    .h    { font-size: 18px; font-weight: 700; fill: #1F3A5F; }
    .sh   { font-size: 13px; font-weight: 600; fill: #1F3A5F; }
    .body { font-size: 11px; font-weight: 400; }
    .label{ font-size: 11px; font-weight: 500; fill: #FFFFFF; }
    .small{ font-size: 9px; font-weight: 400; fill: #3B6BA5; }
    .rail { font-size: 9px; font-weight: 600; fill: #3B6BA5; letter-spacing: 1px; }
  </style>
</defs>
<rect x="0" y="0" width="1100" height="720" rx="8" ry="8" fill="#FFFFFF"/>
<text x="550.0" y="36" class="h" text-anchor="middle" style="font-size:20px">Parallel Install Tracks</text>
<text x="550.0" y="58" class="small" text-anchor="middle">Same six install moves, two staffing patterns. The shape is invariant; the human-hat-density is the variable.</text>
<rect x="60" y="130" width="980" height="100" rx="8" ry="8" fill="#3B6BA5"/>
<text x="76" y="156" class="label" text-anchor="start" style="font-weight:700;font-size:13px">SERIES-C+</text>
<text x="76" y="176" class="label" text-anchor="start" style="font-size:11px;fill:#E8F0F8">~7 humans, ~1 hat each</text>
<rect x="244.0" y="150.0" width="122.0" height="60" rx="4" ry="4" fill="#FFFFFF" stroke="#1F3A5F" stroke-width="1.5"/>
<text x="305.0" y="172.0" class="sh" text-anchor="middle" style="font-weight:700;font-size:12px">Diagnose</text>
<text x="305.0" y="192.0" class="small" text-anchor="middle" style="font-size:10px;fill:#3B6BA5">Day 7</text>
<rect x="374.0" y="150.0" width="122.0" height="60" rx="4" ry="4" fill="#FFFFFF" stroke="#1F3A5F" stroke-width="1.5"/>
<text x="435.0" y="172.0" class="sh" text-anchor="middle" style="font-weight:700;font-size:12px">Charter</text>
<text x="435.0" y="192.0" class="small" text-anchor="middle" style="font-size:10px;fill:#3B6BA5">Day 30</text>
<rect x="504.0" y="150.0" width="122.0" height="60" rx="4" ry="4" fill="#FFFFFF" stroke="#1F3A5F" stroke-width="1.5"/>
<text x="565.0" y="172.0" class="sh" text-anchor="middle" style="font-weight:700;font-size:12px">PLT</text>
<text x="565.0" y="192.0" class="small" text-anchor="middle" style="font-size:10px;fill:#3B6BA5">Day 30</text>
<rect x="634.0" y="150.0" width="122.0" height="60" rx="4" ry="4" fill="#FFFFFF" stroke="#1F3A5F" stroke-width="1.5"/>
<text x="695.0" y="172.0" class="sh" text-anchor="middle" style="font-weight:700;font-size:12px">Interfaces</text>
<text x="695.0" y="192.0" class="small" text-anchor="middle" style="font-size:10px;fill:#3B6BA5">Day 45</text>
<rect x="764.0" y="150.0" width="122.0" height="60" rx="4" ry="4" fill="#FFFFFF" stroke="#1F3A5F" stroke-width="1.5"/>
<text x="825.0" y="172.0" class="sh" text-anchor="middle" style="font-weight:700;font-size:12px">Commit</text>
<text x="825.0" y="192.0" class="small" text-anchor="middle" style="font-size:10px;fill:#3B6BA5">Day 60</text>
<rect x="894.0" y="150.0" width="122.0" height="60" rx="4" ry="4" fill="#FFFFFF" stroke="#1F3A5F" stroke-width="1.5"/>
<text x="955.0" y="172.0" class="sh" text-anchor="middle" style="font-weight:700;font-size:12px">Rhythm</text>
<text x="955.0" y="192.0" class="small" text-anchor="middle" style="font-size:10px;fill:#3B6BA5">Day 90</text>
<line x1="305.0" y1="230" x2="305.0" y2="310" stroke="#A8C5E0" stroke-width="1"/>
<line x1="435.0" y1="230" x2="435.0" y2="310" stroke="#A8C5E0" stroke-width="1"/>
<line x1="565.0" y1="230" x2="565.0" y2="310" stroke="#A8C5E0" stroke-width="1"/>
<line x1="695.0" y1="230" x2="695.0" y2="310" stroke="#A8C5E0" stroke-width="1"/>
<line x1="825.0" y1="230" x2="825.0" y2="310" stroke="#A8C5E0" stroke-width="1"/>
<line x1="955.0" y1="230" x2="955.0" y2="310" stroke="#A8C5E0" stroke-width="1"/>
<rect x="60" y="310" width="980" height="100" rx="8" ry="8" fill="#5B8AC0"/>
<text x="76" y="336" class="label" text-anchor="start" style="font-weight:700;font-size:13px">SUB-SERIES-C</text>
<text x="76" y="356" class="label" text-anchor="start" style="font-size:11px;fill:#E8F0F8">~2 humans, 2–3 hats each</text>
<rect x="244.0" y="330.0" width="252.0" height="60" rx="4" ry="4" fill="#FFFFFF" stroke="#1F3A5F" stroke-width="1.5"/>
<text x="370.0" y="352.0" class="sh" text-anchor="middle" style="font-weight:700;font-size:12px">Diagnose</text>
<text x="370.0" y="372.0" class="small" text-anchor="middle" style="font-size:10px;fill:#3B6BA5">Day 7</text>
<rect x="504.0" y="330.0" width="252.0" height="60" rx="4" ry="4" fill="#FFFFFF" stroke="#1F3A5F" stroke-width="1.5"/>
<text x="630.0" y="352.0" class="sh" text-anchor="middle" style="font-weight:700;font-size:12px">Compressed Charter</text>
<text x="630.0" y="372.0" class="small" text-anchor="middle" style="font-size:10px;fill:#3B6BA5">Day 45</text>
<rect x="764.0" y="330.0" width="252.0" height="60" rx="4" ry="4" fill="#FFFFFF" stroke="#1F3A5F" stroke-width="1.5"/>
<text x="890.0" y="352.0" class="sh" text-anchor="middle" style="font-weight:700;font-size:12px">Rhythm + Triggers</text>
<text x="890.0" y="372.0" class="small" text-anchor="middle" style="font-size:10px;fill:#3B6BA5">Day 90</text>
<rect x="60" y="470" width="980" height="64" rx="8" ry="8" fill="#E8F0F8" stroke="#A8C5E0" stroke-width="1"/>
<text x="550.0" y="496" class="sh" text-anchor="middle" style="font-weight:700;font-size:14px;fill:#E07C3E">Same shape. Different accountability distribution.</text>
<text x="550.0" y="520" class="small" text-anchor="middle" style="font-size:11px;fill:#3B6BA5">The Decision Provenance Standard requires a named human signature in both patterns.</text>
</svg>
